<svg width="62" height="63" viewBox="0 0 62 63" fill="none" xmlns="http://www.w3.org/2000/svg">
<circle cx="32" cy="30" r="30" fill="#FF9335"/>
<path d="M13.7163 14.8376H6.21631M34.7163 19.8376V34.8376M42.2163 27.3376H27.2163M14.3163 14.8376L19.7163 34.4376C20.167 35.9833 21.1032 37.3428 22.3863 38.3153C23.6694 39.2878 25.2314 39.8215 26.8413 39.8376H48.6913V14.8376H14.3163ZM31.2163 48.5876C31.2163 50.6587 29.5374 52.3376 27.4663 52.3376C25.3952 52.3376 23.7163 50.6587 23.7163 48.5876C23.7163 46.5166 25.3952 44.8376 27.4663 44.8376C29.5374 44.8376 31.2163 46.5166 31.2163 48.5876ZM48.7163 48.5876C48.7163 50.6587 47.0374 52.3376 44.9663 52.3376C42.8952 52.3376 41.2163 50.6587 41.2163 48.5876C41.2163 46.5166 42.8952 44.8376 44.9663 44.8376C47.0374 44.8376 48.7163 46.5166 48.7163 48.5876Z" stroke="white" stroke-width="4" stroke-linecap="round" stroke-linejoin="round"/>
</svg>
